<?xml version="1.0" standalone="no"?>
<!DOCTYPE svg PUBLIC "-//W3C//DTD SVG 20010904//EN"
 "http://www.w3.org/TR/2001/REC-SVG-20010904/DTD/svg10.dtd">
<svg version="1.0" xmlns="http://www.w3.org/2000/svg"
 width="300.000000pt" height="424.000000pt" viewBox="0 0 300.000000 424.000000"
 preserveAspectRatio="xMidYMid meet">
<metadata>
Created by potrace 1.10, written by Peter Selinger 2001-2011
</metadata>
<g transform="translate(0.000000,424.000000) scale(0.100000,-0.100000)"
fill="#000000" stroke="none">
<path d="M2567 2402 c-9 -10 -17 -25 -17 -33 0 -8 -8 -26 -17 -39 -10 -14 -17
-27 -16 -30 1 -3 -15 -11 -35 -18 -20 -7 -42 -19 -48 -27 -10 -14 -13 -13 -24
0 -16 19 -35 19 -71 -2 -34 -20 -42 -38 -29 -64 7 -13 21 -19 44 -19 19 0 39
-7 46 -16 8 -9 25 -14 41 -12 19 2 33 -4 42 -16 19 -26 31 -16 46 42 19 68 31
81 86 89 46 6 47 5 36 -15 -20 -38 -13 -69 22 -96 39 -30 97 -35 117 -10 24
28 16 97 -16 143 l-29 42 -70 -3 -70 -3 0 49 c0 54 -13 66 -38 38z m188 -178
c7 -41 -2 -77 -18 -70 -7 3 -20 9 -29 12 -24 8 -32 39 -17 66 25 48 54 44 64
-8z m-274 -16 c-33 -30 -51 -29 -51 1 0 12 12 22 33 28 47 14 54 4 18 -29z"/>
<path d="M674 2391 c-13 -14 -2 -41 17 -41 19 0 21 -4 14 -37 -3 -21 -15 -58
-26 -83 l-20 -45 -19 25 c-11 14 -24 36 -31 50 -6 14 -16 33 -21 44 -5 10 -11
27 -13 38 -11 54 -37 33 -84 -66 -48 -103 -54 -131 -27 -131 10 0 22 7 26 15
4 8 12 25 18 37 7 13 12 29 12 37 0 8 7 22 17 31 15 16 17 14 30 -17 18 -42
82 -108 105 -108 18 0 38 28 38 54 0 22 42 116 52 116 4 0 8 -4 8 -10 0 -5 7
-10 16 -10 11 0 15 8 12 28 -3 24 1 27 29 30 32 3 33 3 26 -30 -3 -18 -15 -58
-26 -88 -10 -30 -20 -66 -20 -80 -3 -37 25 -32 42 8 15 33 31 43 31 18 0 -17
97 -106 115 -106 7 0 15 -7 19 -15 7 -19 46 -20 46 0 0 8 -12 22 -27 32 -34
23 -133 120 -133 131 0 4 20 21 45 37 41 25 44 30 31 44 -14 13 -17 13 -34 -2
-27 -25 -32 -21 -32 24 0 36 2 41 20 36 23 -6 37 10 22 25 -9 9 -269 18 -278
9z"/>
<path d="M1324 2379 c-15 -17 -19 -37 -20 -98 -1 -72 -3 -76 -26 -85 -38 -14
-60 -2 -52 29 3 14 3 32 0 40 -9 24 -46 0 -46 -29 0 -20 -16 -36 -36 -36 -2 0
-4 13 -4 29 0 33 -20 54 -47 49 -14 -2 -17 2 -14 22 15 98 -11 101 -45 5 -33
-93 -37 -112 -30 -132 6 -14 14 -9 51 27 46 45 48 45 45 -2 -1 -21 4 -29 24
-34 14 -3 30 -3 36 1 7 4 27 -1 45 -11 31 -16 36 -17 74 -2 34 14 42 14 52 2
16 -19 79 -19 79 1 0 9 -9 15 -24 15 -29 0 -44 30 -21 42 8 5 15 18 15 28 0
11 4 20 9 20 16 0 25 89 12 116 -13 30 -51 32 -77 3z m47 -60 c-4 -33 -20 -61
-31 -54 -5 3 -5 18 0 35 5 17 6 30 4 30 -3 0 -2 5 1 11 12 18 30 3 26 -22z"/>
<path d="M2225 2382 c-32 -27 -60 -73 -73 -118 -9 -32 -18 -43 -37 -46 -25 -5
-45 7 -45 29 0 22 -47 26 -74 6 -44 -31 -30 -73 24 -73 10 0 20 -4 22 -8 2 -5
33 -7 70 -4 58 4 67 7 72 26 5 22 44 52 54 42 3 -3 0 -24 -7 -47 -9 -31 -10
-44 -1 -53 16 -15 37 15 45 66 5 30 3 44 -10 58 -16 18 -16 21 5 49 42 60 6
118 -45 73z"/>
<path d="M1925 2366 c-14 -14 -25 -31 -25 -39 0 -7 -12 -24 -26 -38 -21 -19
-36 -24 -84 -24 -48 0 -63 5 -84 24 -14 14 -26 32 -26 41 0 21 -19 40 -41 40
-18 0 -31 -27 -49 -105 -16 -69 -18 -77 -26 -102 -5 -19 -2 -23 15 -23 23 0
39 28 48 85 3 17 9 38 15 49 9 17 11 17 36 -7 15 -13 37 -30 49 -36 28 -14 88
-14 115 0 11 6 22 9 24 6 3 -2 -2 -30 -11 -63 -20 -78 -19 -86 7 -82 15 2 24
12 29 33 3 17 12 57 20 90 7 33 15 62 18 65 3 3 16 20 29 38 40 56 14 95 -33
48z"/>
<path d="M1230 2365 c-17 -20 -2 -50 25 -50 26 0 29 18 7 45 -17 20 -19 21
-32 5z"/>
<path d="M736 2203 c-21 -62 -6 -82 30 -38 30 37 33 85 5 85 -14 0 -24 -13
-35 -47z"/>
</g>
</svg>
